<?xml version="1.0" standalone="no"?><!DOCTYPE svg PUBLIC "-//W3C//DTD SVG 1.1//EN" "http://www.w3.org/Graphics/SVG/1.1/DTD/svg11.dtd"><svg t="1679146340396" class="icon" viewBox="0 0 1024 1024" version="1.1" xmlns="http://www.w3.org/2000/svg" p-id="3238" width="128" height="128" xmlns:xlink="http://www.w3.org/1999/xlink"><path d="M899.9936 350.208l-0.2048 0.2048-27.0336-3.584L911.36 395.6736l-0.2048 0.3072-47.9232-31.744-0.7168 17.408-0.8192-0.9216c3.1744 28.9792-16.6912 55.808-40.5504 69.12a111.616 111.616 0 0 1-59.6992 13.4144l21.9136 21.8112a25.21088 25.21088 0 0 1 0 35.6352l-36.1472 36.1472a223.81568 223.81568 0 0 0-107.008-107.008l36.0448-36.1472a25.344 25.344 0 0 1 35.7376 0l32.1536 32.256a117.00224 117.00224 0 0 0 77.2096-9.5232c24.6784-13.7216 33.5872-35.6352 22.528-55.5008-0.2048-0.3072-0.4096-0.512-0.6144-0.8192L831.488 395.264l-0.8192-26.4192a28.416 28.416 0 0 0-5.0176-1.536l-47.8208 10.5472-0.2048-0.2048 27.9552-20.7872a16.76288 16.76288 0 0 1 4.096-11.1616l-7.8848 0.512-0.2048-0.2048 17.1008-9.6256-46.08-24.064 0.2048-0.2048 57.0368 12.4928-14.336-14.9504 15.4624 2.6624-14.5408-42.3936 0.2048-0.2048 36.2496 36.9664 7.9872-10.8544 1.8432 15.5648 26.3168-29.9008 0.2048 0.3072-18.5344 45.2608 32.8704-3.584 0.3072 0.2048-27.2384 11.3664z m-229.9904 47.2064l-4.4032 4.4032V256a20.54144 20.54144 0 0 0-20.48-20.48H460.8a20.54144 20.54144 0 0 0-20.48 20.48v193.4336c-7.0656 3.6864-13.9264 7.68-20.48 11.9808V235.52a20.54144 20.54144 0 0 1 20.48-20.48h225.28a20.54144 20.54144 0 0 1 20.48 20.48v153.9072a27.648 27.648 0 0 0-16.0768 7.9872z m-188.5184-80.896l-6.7584 23.04h-12.1856l23.9616-78.2336h14.5408l23.9616 78.2336h-12.4928l-7.0656-23.04h-23.9616z m15.872-29.4912c-1.4336-5.12-2.7648-10.6496-3.8912-15.4624h-0.2048c-1.1264 4.8128-2.3552 10.5472-3.6864 15.36l-6.2464 20.48h20.1728z m249.9584 361.0624a201.8304 201.8304 0 1 1-201.8304-201.728 201.728 201.728 0 0 1 201.8304 201.728z m-264.6016-16.1792c-2.6624 0.512-3.6864-0.8192-3.1744-3.9936v-62.464h-21.6064v64c-1.024 14.9504 4.5056 21.9136 16.7936 20.8896h7.9872v-18.432z m55.296-65.6384H517.12v60.0064c0 3.1744-1.3312 4.608-3.9936 3.9936v20.0704h11.264c9.0112 1.024 13.6192-5.632 13.6192-20.0704V566.272z m2.3552 151.2448h-7.168a3.65568 3.65568 0 0 1-3.9936-2.4576l-19.2512-56.7296v-96.8704h-23.9616v98.4064l-20.0704 56.832c-1.024 2.6624-2.3552 3.7888-3.9936 3.1744h-4.8128v22.4256h17.6128a12.288 12.288 0 0 0 9.6256-6.3488l14.4384-36.0448 12.8 35.2256a7.75168 7.75168 0 0 0 6.3488 4.8128h22.4256v-22.4256z m1.6384-124.0064h10.3424a18.3296 18.3296 0 0 0 13.6192-3.1744v152.7808h27.2384v-22.4256h47.2064v-23.9616h-47.2064v-40.8576h47.2064v-25.6h-47.2064v-39.936h46.3872v-23.2448h-54.4768l3.2768-7.168h-30.4128l-2.4576 5.5296a7.58784 7.58784 0 0 1-7.168 6.4512h-6.3488v21.6064zM291.7376 442.1632l-18.432-79.7696 12.5952-7.2704 59.904 55.808-10.752 6.2464-17.7152-16.384-20.6848 11.9808 5.632 23.3472z m19.3536-48.2304l-15.4624-14.7456c-3.7888-3.6864-7.7824-7.7824-11.1616-11.3664l-0.1024 0.1024c1.3312 4.7104 3.1744 10.24 4.4032 15.1552l4.9152 20.8896z m-74.5472-46.1824a20.48 20.48 0 0 0-7.5776 27.9552l107.2128 185.6512a236.24704 236.24704 0 0 0-9.1136 25.088L201.0112 368.2304a20.66432 20.66432 0 0 1 7.4752-28.0576L399.36 230.0928v24.064a15.19616 15.19616 0 0 0-3.2768 1.4336z m6.8608 241.2544l-55.808-59.8016 7.2704-12.5952 79.7696 18.3296-6.2464 10.8544-23.4496-5.4272-11.9808 20.7872 16.5888 17.3056z m-7.2704-51.5072l-20.8896-4.9152c-5.12-1.3312-10.5472-2.8672-15.2576-4.3008l-0.1024 0.1024c3.584 3.3792 7.8848 7.3728 11.4688 10.9568l14.6432 15.6672zM211.968 430.7968l-60.928 105.5744a20.35712 20.35712 0 0 0 7.4752 27.9552l159.0272 91.8528a245.46304 245.46304 0 0 0 1.8432 24.6784L130.56 571.8016a20.48 20.48 0 0 1-7.5776-27.9552l77.1072-133.5296z" fill="#d81e06" p-id="3239"></path></svg>